<svg width="120" height="120" viewBox="0 0 120 120" fill="none" xmlns="http://www.w3.org/2000/svg">
<circle cx="60" cy="60" r="60" fill="#717EC3"/>
<path d="M60.1792 33.2381C59.7293 33.0578 59.2273 33.0578 58.7774 33.2381L36.2894 42.2325L45.3479 45.8537L68.5368 36.5804L60.1792 33.2381ZM73.6087 38.6114L50.4198 47.8847L59.4783 51.5058L82.6672 42.2325L73.6087 38.6114ZM85.855 45.0172L61.3624 54.8142V84.6651L85.855 74.8681V45.0172ZM57.5943 84.6689V54.8105L33.1016 45.0172V74.8718L57.5943 84.6689ZM57.3795 29.7375C58.7268 29.1987 60.2298 29.1987 61.5771 29.7375L88.4399 40.4841C88.7892 40.6241 89.0886 40.8654 89.2994 41.177C89.5103 41.4887 89.623 41.8563 89.6231 42.2325V74.8718C89.6227 75.6248 89.3966 76.3603 88.9742 76.9836C88.5517 77.6069 87.9522 78.0893 87.253 78.3686L60.1792 89.1982C59.7293 89.3784 59.2273 89.3784 58.7774 89.1982L31.7074 78.3686C31.0075 78.0899 30.4072 77.6077 29.984 76.9844C29.5609 76.3611 29.3343 75.6252 29.3335 74.8718V42.2325C29.3336 41.8563 29.4463 41.4887 29.6572 41.177C29.8681 40.8654 30.1674 40.6241 30.5167 40.4841L57.3795 29.7375Z" fill="white"/>
</svg>
